<?xml version="1.0" standalone="no"?>
<!DOCTYPE svg PUBLIC "-//W3C//DTD SVG 20010904//EN"
 "http://www.w3.org/TR/2001/REC-SVG-20010904/DTD/svg10.dtd">

<svg version="1.0" xmlns="http://www.w3.org/2000/svg"
 width="824.000000pt" height="1280.000000pt" viewBox="0 0 824.000000 1280.000000"
 preserveAspectRatio="none">
<g transform="translate(0.000000,1280.000000) scale(0.100000,-0.100000)"
fill="#ccbcb2" stroke="none">
<path d="M3957 12548 c-738 -989 -1434 -2089 -2162 -3419 -1043 -1905 -1790
-3950 -1790 -4904 0 -477 134 -1091 347 -1590 565 -1323 1678 -2272 2981
-2539 524 -108 1011 -118 1527 -30 1239 209 2272 998 2880 2199 53 105 120
249 150 320 161 391 274 832 314 1220 9 83 21 197 27 255 31 278 -46 815 -197
1385 -307 1158 -906 2577 -1627 3860 -491 875 -1021 1731 -1492 2415 -288 419
-758 1059 -777 1060 -4 0 -85 -105 -181 -232z"/>
</g>
</svg>
