<?xml version="1.0" encoding="UTF-8" standalone="no"?>
<!DOCTYPE svg PUBLIC "-//W3C//DTD SVG 1.1//EN" "http://www.w3.org/Graphics/SVG/1.1/DTD/svg11.dtd">
<svg width="1000.00" height="1000.00" viewBox="0.00 0.00 1000.00 1000.00" xmlns="http://www.w3.org/2000/svg" xmlns:xlink="http://www.w3.org/1999/xlink">
<g stroke-linecap="round" id="レイヤー_2">
<path d="M640.99,830.76 C640.49,831.04 640.05,831.19 639.67,831.20 C638.42,831.22 635.72,830.42 634.56,829.67 C632.21,828.09 628.62,823.42 627.02,820.96 C623.98,816.20 619.66,806.36 615.58,796.17 C612.67,788.60 607.60,774.18 605.68,766.65 C604.60,762.37 601.62,747.45 600.13,737.58 C597.53,718.47 596.06,692.38 595.91,677.59 C595.96,665.68 597.95,632.12 599.77,616.78 C601.91,602.12 608.18,570.87 611.94,556.91 C614.09,549.41 618.82,534.30 621.47,526.73 C625.44,516.26 629.37,507.12 634.35,496.68 C638.17,489.13 645.70,475.20 649.24,468.75 C653.88,460.56 659.37,452.19 664.97,444.86 C666.81,442.49 680.19,426.49 682.77,423.74 C687.58,418.66 699.47,407.87 705.17,403.55 C711.55,398.74 723.10,391.68 730.49,388.33 C736.83,385.49 751.49,381.59 758.71,381.27 C763.14,381.09 769.86,381.71 773.89,382.66 C777.92,383.64 783.89,386.10 787.40,388.22 C790.88,390.37 795.95,394.64 798.82,397.86 C801.57,400.97 805.15,406.26 807.03,409.79 C810.44,416.29 814.91,430.53 816.17,437.95 C817.17,443.93 818.04,458.25 817.87,466.04 C817.69,471.99 816.61,484.31 815.12,494.36 C812.55,509.04 804.99,536.87 801.23,548.84 C798.55,556.85 783.27,591.30 776.02,606.66 C768.69,621.22 755.39,645.16 745.69,660.98 C738.02,673.05 720.27,698.62 711.53,710.84 C707.38,716.43 699.28,727.16 695.33,732.31 C686.83,742.97 639.66,792.23 631.63,800.57 C631.51,800.69 631.39,800.81 631.28,800.93" fill="none" stroke="rgb(255, 255, 255)" stroke-width="13.14" stroke-opacity="1.00" stroke-linejoin="round"/>
<path d="M636.50,825.91 C637.52,823.96 643.26,811.17 648.98,800.94 C653.36,793.39 663.52,776.32 666.13,772.39 C669.82,766.83 680.42,753.42 683.28,750.12 C696.24,735.42 713.23,718.95 727.80,706.97 C734.02,702.03 746.53,693.17 753.04,688.83 C759.67,684.64 770.63,678.17 780.05,673.30 C789.80,668.57 801.84,663.45 808.87,661.13 C815.80,658.86 828.18,655.88 839.01,653.68 C848.51,651.91 858.61,650.76 866.25,651.11 C872.95,651.43 886.38,652.94 894.59,655.25 C901.36,657.19 914.06,663.30 919.66,667.57 C922.23,669.56 926.70,674.06 928.62,676.45 C930.53,678.85 933.55,684.19 934.68,686.94 C935.81,689.73 937.07,695.70 937.34,698.88 C937.58,702.00 937.06,708.61 936.43,711.97 C935.20,718.29 929.29,731.62 925.16,738.05 C921.34,743.96 909.03,757.96 906.94,760.09 C901.58,765.53 894.14,771.51 885.83,777.45 C875.93,784.32 864.35,791.82 857.45,795.65 C851.18,799.11 839.57,804.50 830.06,808.41 C823.12,811.11 809.03,816.04 801.84,818.29 C784.37,823.37 761.24,828.43 743.31,831.48 C734.05,832.90 721.39,834.40 714.04,835.10 C706.32,835.74 694.44,835.92 683.73,835.67 C674.27,835.30 659.52,833.59 653.06,831.47 C650.17,830.51 641.36,826.49 641.18,826.32 C640.79,825.97 639.94,824.97 638.63,823.35" fill="none" stroke="rgb(255, 255, 255)" stroke-width="13.14" stroke-opacity="1.00" stroke-linejoin="round"/>
<path d="M622.73,829.97 C622.86,827.88 622.82,826.85 622.49,825.34 C621.17,819.13 615.49,803.26 613.93,799.41 C610.97,792.13 604.20,778.89 600.29,772.16 C594.95,763.23 588.83,753.74 584.29,747.70 C578.20,739.77 570.81,731.09 565.91,725.56 C558.89,718.05 549.87,709.52 543.97,704.29 C535.71,697.36 526.18,690.29 520.17,686.10 C511.53,680.40 504.24,676.08 495.14,671.27 C488.58,667.98 475.70,662.26 467.45,659.41 C459.72,656.76 445.36,653.08 437.11,651.90 C429.69,650.86 415.37,650.14 407.35,650.68 C400.25,651.17 385.91,653.49 377.68,655.86 C369.21,658.32 356.81,664.26 348.87,669.61 C346.03,671.55 340.52,675.31 337.97,677.38 C334.58,680.17 324.87,695.48 322.83,699.87 C321.15,703.53 319.25,710.92 318.85,714.68 C318.49,718.19 318.53,725.99 319.10,729.76 C319.71,733.70 321.72,741.30 323.18,745.09 C325.61,751.33 334.82,764.99 340.05,770.40 C344.51,774.97 357.95,785.45 364.60,789.54 C370.28,793.02 385.53,800.51 392.96,803.84 C400.84,807.25 438.60,819.83 448.90,822.50 C457.73,824.76 496.78,830.67 513.22,832.58 C530.84,834.24 558.81,834.63 559.02,834.62 C559.35,834.60 559.94,834.53 560.80,834.40" fill="none" stroke="rgb(255, 255, 255)" stroke-width="13.14" stroke-opacity="1.00" stroke-linejoin="round"/>
<path d="M646.93,855.76 C640.47,857.75 625.45,862.28 616.97,864.04 C610.42,865.32 596.49,867.56 588.66,868.35 C580.31,868.99 564.65,869.60 556.15,869.70 C547.99,869.63 529.59,869.33 524.64,869.02 C518.12,868.59 503.62,866.27 496.41,864.82 C486.18,862.68 475.24,859.88 467.82,857.22 C460.47,854.56 448.64,849.15 441.47,844.99 C435.00,841.21 423.05,832.27 419.08,828.17 C417.13,826.14 412.54,820.29 410.80,817.58 C408.75,814.33 406.16,808.88 404.83,804.96 C402.34,797.55 400.31,783.96 400.16,775.46 C400.04,767.15 401.66,751.54 402.82,744.70 C404.31,736.03 407.86,722.43 409.93,715.34 C412.18,708.16 416.03,696.80 419.62,687.53 C422.34,680.85 428.71,666.48 432.59,658.44 C439.34,645.48 457.12,613.57 463.16,603.60 C471.71,589.97 488.64,566.08 498.34,554.12 C503.42,548.13 513.16,536.86 517.83,531.58 C520.93,528.16 531.91,517.19 539.17,510.72 C544.88,505.82 557.10,496.30 563.39,491.49 C569.94,486.71 582.28,478.28 589.62,474.12 C595.99,470.52 610.11,463.76 615.89,461.61 C623.04,458.98 637.49,455.06 643.24,454.24 C649.93,453.31 665.45,453.48 671.24,454.47 C678.09,455.68 693.13,461.36 698.60,464.94 C704.79,469.03 715.45,479.06 719.81,485.22 C724.29,491.61 730.38,504.42 732.51,512.16 C734.31,518.83 736.56,533.11 736.84,541.66 C737.06,549.27 736.20,564.13 734.74,572.66 C733.44,580.17 729.84,594.30 727.15,601.98 C725.11,607.79 719.09,622.10 715.80,628.65 C712.34,635.21 703.36,650.59 700.72,654.51 C690.34,669.57 674.98,688.15 662.22,701.56 C652.66,711.29 628.89,732.63 617.10,742.33 C601.98,754.15 580.91,769.02 568.99,776.85 C555.97,784.86 531.40,798.16 517.25,803.94 C510.40,806.69 494.33,811.17 488.06,811.93 C484.26,812.38 476.34,812.57 473.84,812.32 C470.16,811.92 462.57,809.67 460.09,808.18 C457.55,806.61 452.75,801.28 451.31,798.27 C450.31,796.10 448.73,789.28 448.36,785.58 C447.81,779.73 449.35,763.45 450.88,756.21 C452.77,747.64 456.92,733.20 459.44,726.01 C465.47,709.65 477.18,683.83 484.60,669.65 C491.95,656.36 507.78,629.34 515.87,615.79 C524.72,601.74 541.95,575.83 550.96,563.07 C560.39,550.17 577.52,528.01 590.77,512.37 C595.93,506.50 605.94,495.27 610.81,489.91 C618.16,482.16 625.91,474.59 631.66,469.72 C634.75,467.11 649.91,455.45 656.21,450.73 C664.84,444.49 674.70,439.61 680.05,437.00 C683.41,435.43 688.41,433.94 693.73,432.75 C698.46,431.74 705.92,430.73 708.92,430.78 C712.92,430.89 719.65,432.63 723.22,434.27 C726.41,435.79 732.15,440.24 734.62,442.89 C737.36,445.90 740.65,451.12 742.37,454.98 C743.85,458.39 746.13,465.80 746.81,469.50 C747.90,475.65 748.28,493.50 747.67,500.81 C746.32,516.06 741.38,541.92 736.44,559.71 C735.15,564.16 729.44,580.52 726.80,587.36 C722.96,596.66 717.84,607.38 714.45,614.02 C710.90,620.61 704.89,631.12 699.19,640.02 C688.55,655.92 671.66,677.16 661.56,688.61 C656.41,694.26 645.56,705.37 639.91,710.90 C628.07,722.07 606.54,739.64 591.03,751.14 C578.31,759.88 553.16,775.85 539.71,783.33 C533.24,786.77 520.98,792.87 511.81,796.76 C504.67,799.57 491.15,804.81 484.78,806.32 C476.07,808.46 464.06,809.37 456.18,808.54 C452.12,808.07 445.11,805.48 441.89,803.20 C439.02,801.09 434.93,795.97 433.46,793.29 C431.77,790.12 429.99,784.56 429.28,780.56 C428.03,773.29 428.03,759.47 429.03,750.66 C430.02,742.20 432.70,729.87 434.86,721.48 C437.73,711.45 440.43,703.38 444.18,693.49 C447.02,686.41 453.31,672.10 456.57,665.42 C462.01,654.73 477.44,627.53 487.97,610.76 C496.88,597.04 514.01,572.31 522.73,560.00 C531.87,547.75 551.50,523.07 561.80,510.90 C569.49,502.17 592.94,477.56 603.57,467.03 C615.11,456.21 641.65,432.93 650.42,425.98 C662.70,416.53 687.07,399.70 700.45,391.88 C707.91,387.69 720.69,381.57 727.99,379.05 C732.74,377.42 752.83,372.32 757.24,372.30 C759.71,372.36 768.46,372.71 768.57,372.73 C771.97,373.24 780.21,377.07 782.15,378.22 C785.70,380.36 790.21,385.16 791.83,388.59 C793.27,391.73 794.82,399.14 794.89,402.53 C794.97,408.90 792.74,422.81 790.47,430.18 C788.30,437.12 782.66,451.01 778.81,458.76 C775.20,465.66 765.56,482.29 762.84,486.35 C758.44,492.81 748.91,505.89 744.00,512.25 C737.30,520.76 712.39,547.22 702.97,556.40 C690.11,568.57 666.33,588.77 655.94,597.12 C643.86,606.54 618.20,626.24 604.61,636.51 C576.47,656.89 523.25,694.82 498.17,712.38 C485.66,720.86 462.45,736.07 449.32,743.88 C441.83,748.22 424.89,757.84 420.66,759.92 C417.05,761.68 411.27,763.59 409.44,763.88 C406.61,764.32 401.01,764.28 399.86,764.28 C399.73,761.40 399.31,752.10 399.27,749.87 C399.20,744.93 399.98,738.38 401.76,735.32 C402.16,734.64 407.68,722.10 412.49,712.53 C420.13,697.62 435.22,672.10 443.18,659.45 C451.26,647.13 466.25,625.42 477.55,610.39 C489.35,595.38 506.36,575.70 516.57,564.54 C527.00,553.58 549.08,531.88 560.42,521.30 C572.04,511.02 598.50,488.94 608.41,481.47 C614.85,476.74 627.70,467.77 633.98,463.65 C638.05,461.03 655.87,450.90 660.04,448.83 C667.10,445.34 680.25,440.05 688.29,437.67 C695.68,435.60 708.64,432.30 715.50,432.21 C722.99,432.17 731.40,433.40 740.04,436.44 C743.75,437.77 750.50,440.92 753.52,443.06 C756.52,445.22 761.98,450.94 763.73,453.59 C765.51,456.33 768.55,463.69 769.37,467.39 C770.15,471.01 770.27,478.38 769.95,481.97 C769.19,489.94 765.03,504.32 761.99,511.95 C759.42,518.36 751.71,533.46 748.86,538.48 C744.20,546.40 736.85,557.00 732.39,563.05 C727.74,569.07 720.13,578.39 713.57,585.62 C707.52,592.01 697.72,601.50 691.22,607.41 C680.22,616.78 651.79,639.45 642.18,646.52 C631.62,654.02 602.73,672.80 590.09,680.60 C577.02,688.40 551.22,703.36 538.48,710.52 C525.07,717.63 497.39,731.91 483.12,739.07 C469.24,745.77 437.59,760.56 427.50,764.71 C422.42,766.73 405.74,772.55 398.82,774.87 C390.85,777.52 377.56,779.30 371.05,779.43 C367.28,779.48 361.41,778.14 358.67,776.60 C357.26,775.76 355.28,773.83 354.28,772.25 C352.41,769.19 351.70,762.88 352.14,758.89 C352.97,752.16 357.69,739.11 360.63,732.74 C363.29,727.03 370.65,714.04 374.45,707.76 C379.61,699.58 386.45,689.58 390.68,683.65 C398.74,672.72 421.45,646.70 432.74,634.35 C443.43,622.98 465.02,601.49 475.61,591.23 C486.49,581.12 508.81,560.68 520.27,550.63 C531.70,540.99 555.07,522.32 567.30,513.20 C580.96,503.63 611.22,483.69 620.41,478.10 C624.74,475.55 634.85,470.72 644.88,466.42 C652.79,463.15 669.86,456.32 675.62,454.65 C680.85,453.13 692.18,450.81 701.99,449.15 C709.80,448.00 724.93,446.99 731.33,447.26 C738.75,447.58 752.30,449.17 757.72,450.62 C761.82,451.72 781.18,458.48 787.07,461.19 C794.76,464.76 808.65,474.18 813.00,477.74 C816.31,480.48 819.93,484.55 821.55,486.40 C825.33,491.13 827.64,494.65 829.10,498.32 C830.85,502.76 832.94,508.80 833.71,512.33 C834.50,516.01 834.76,523.29 834.37,526.99 C833.49,534.62 828.74,548.20 825.34,554.71 C821.99,561.06 812.80,573.65 807.56,579.52 C803.03,584.55 793.26,593.62 785.51,600.13 C773.81,609.51 748.68,626.51 736.24,634.73 C725.33,641.48 702.69,654.91 684.75,664.46 C672.22,670.93 644.70,684.98 629.71,692.56 C614.69,699.79 584.10,714.07 568.52,721.12 C552.86,727.74 522.87,740.14 508.54,745.92 C493.65,751.60 462.59,763.00 448.72,767.49 C432.31,772.33 405.09,778.52 391.59,780.69 C383.55,781.93 370.54,781.51 364.99,780.37 C361.41,779.62 354.43,777.63 351.36,775.93 C349.68,774.97 347.02,772.93 346.22,771.90 C345.44,770.86 344.27,767.72 344.08,766.25 C343.76,763.22 345.78,756.26 347.33,752.89 C349.80,747.60 359.06,734.18 363.65,728.66 C368.13,723.39 380.21,710.16 383.66,706.78 C389.13,701.50 401.06,690.64 407.44,685.21 C416.26,678.09 440.80,660.09 455.93,650.02 C468.83,641.77 495.53,625.81 509.48,618.01 C520.39,612.14 550.22,597.80 563.84,591.89 C580.36,585.38 606.16,576.55 621.51,572.48 C629.96,570.40 645.52,566.84 652.55,565.25 C661.51,563.27 672.59,561.58 681.07,560.90 C688.01,560.34 703.28,559.21 711.61,558.64 C722.59,558.15 735.34,558.16 742.94,558.38 C750.29,558.77 764.55,559.94 772.12,560.84 C779.58,561.91 795.88,564.84 800.99,566.12 C807.83,567.85 829.60,575.13 830.65,575.52 C837.81,578.19 849.26,585.47 855.17,590.09 C858.84,592.98 863.92,598.38 866.09,601.90 C867.89,604.90 870.87,612.36 871.56,616.02 C872.24,619.81 872.47,627.90 872.00,631.41 C871.63,634.00 869.53,641.38 868.19,644.73 C865.64,650.99 857.50,663.13 852.51,668.71 C848.24,673.45 836.43,683.54 829.64,688.53 C825.80,691.32 810.06,701.26 803.02,705.35 C793.07,710.87 760.12,726.64 748.95,731.35 C734.48,737.18 705.32,747.84 690.54,752.72 C676.10,757.21 644.11,766.14 633.04,768.84 C613.93,773.19 584.76,778.62 573.18,779.99 C565.33,780.81 549.21,781.71 542.58,781.11 C538.70,780.72 534.69,779.37 530.37,777.55 C531.04,774.67 532.95,766.38 534.13,763.51 C535.64,759.91 539.83,754.54 542.56,752.25 C546.54,748.94 560.00,739.32 566.34,735.02 C576.38,728.52 605.65,712.04 619.10,705.08 C633.10,698.14 661.22,685.18 675.01,679.05 C688.97,673.19 717.27,662.22 731.28,657.19 C746.40,652.20 776.15,643.43 791.51,639.96 C799.03,638.43 812.79,636.07 822.30,635.05 C830.37,634.35 847.20,633.26 852.09,633.59 C857.80,634.05 868.56,635.25 877.08,637.71 C881.66,639.08 888.58,641.56 891.17,642.85 C894.59,644.58 899.64,648.46 901.99,651.01 C904.17,653.44 907.26,659.73 907.88,663.24 C908.42,666.59 907.40,673.21 906.38,676.33 C905.18,679.92 902.45,685.19 900.13,688.62 C895.86,694.86 886.46,704.42 879.73,709.74 C873.24,714.84 862.03,722.04 853.82,726.84 C840.82,733.99 810.58,747.32 798.56,752.19 C789.01,755.89 753.72,767.70 738.63,772.61 C722.01,777.79 685.17,788.17 671.78,791.34 C658.65,794.27 633.11,799.79 630.60,799.93 C626.03,800.14 615.59,796.81 614.46,796.45 C619.12,791.22 630.15,778.97 635.60,774.20 C639.73,770.61 653.13,761.42 659.27,757.48 C665.95,753.34 680.22,744.98 686.92,741.35 C704.26,732.44 728.75,721.41 742.55,715.79 C756.08,710.65 784.90,701.46 800.79,697.64 C808.55,695.92 823.60,693.07 831.01,691.92 C838.31,690.93 851.20,689.55 859.95,689.17 C867.12,689.03 881.13,689.21 889.24,690.16 C897.79,691.19 911.50,694.81 915.22,697.10 C916.98,698.22 919.97,700.88 920.95,702.31 C921.96,703.86 922.76,706.46 922.77,708.08 C922.70,711.07 920.91,716.94 919.23,719.76 C915.63,725.69 906.63,734.95 899.79,740.27 C894.46,744.40 883.43,751.39 873.70,757.04 C870.04,759.14 856.44,766.02 848.54,769.43 C835.86,774.61 807.89,785.26 792.37,791.04 C776.74,796.47 744.71,807.35 728.31,812.81 C688.89,825.39 669.27,830.06 668.48,830.25 C685.43,819.44 701.27,810.69 719.38,802.02 C737.23,794.06 763.52,783.74 778.65,778.33 C786.23,775.80 802.94,770.73 808.83,769.19 C816.99,767.19 832.99,763.86 840.73,762.52 C848.15,761.42 863.24,759.66 872.00,759.50 C876.52,759.42 895.69,760.20 900.24,760.76 C902.70,761.08 905.18,761.76 906.41,762.56 C907.80,763.49 911.76,768.31 912.49,769.21 C910.60,770.48 905.07,774.18 902.27,775.50 C896.59,778.14 882.46,781.91 872.85,783.81 C865.93,785.12 846.52,787.49 840.67,787.93 C831.94,788.53 819.34,787.58 818.94,787.45 C818.45,787.30 817.35,786.84 815.62,786.07" fill="none" stroke="rgb(255, 255, 255)" stroke-width="113.08" stroke-opacity="1.00" stroke-linejoin="round"/>
<path d="M422.22,326.31 C422.22,326.31 420.85,329.08 420.85,329.08 C418.72,328.75 417.68,328.24 416.40,326.67 C410.75,319.96 405.50,311.29 402.76,304.83 C399.51,297.02 396.20,286.36 394.65,278.89 C393.40,272.77 391.70,257.41 391.44,250.08 C391.26,244.47 391.99,228.43 392.73,221.14 C393.37,215.31 396.53,198.34 398.40,190.77 C400.16,183.89 405.63,167.94 408.74,160.57 C411.54,153.95 419.35,139.36 423.53,132.83 C427.29,126.97 436.89,114.76 441.72,109.80 C446.78,104.65 460.50,94.31 464.08,92.18 C467.75,90.03 473.61,88.04 476.14,87.35 C479.64,86.40 484.92,86.73 489.41,87.95 C491.67,88.60 495.11,90.14 496.64,91.22 C498.86,92.84 502.60,98.29 504.04,101.77 C505.31,104.93 506.72,111.76 507.07,115.21 C507.79,122.72 506.45,136.80 505.17,143.38 C503.71,150.81 499.84,163.57 496.69,172.64 C492.85,183.13 489.40,191.71 484.88,201.75 C479.79,212.58 465.69,239.24 455.47,256.40 C444.56,274.11 433.40,289.77 420.00,307.55 C415.13,313.97 408.69,322.44 407.12,324.51 C406.97,324.71 406.81,324.92 406.66,325.12 C406.66,325.12 407.00,324.47 407.00,324.47" fill="none" stroke="rgb(255, 255, 255)" stroke-width="13.14" stroke-opacity="1.00" stroke-linejoin="round"/>
<path d="M398.99,322.47 C399.09,320.37 398.75,316.97 397.67,313.49 C396.22,308.97 393.85,302.45 392.26,299.39 C389.77,294.68 379.70,281.78 373.99,276.25 C368.28,270.75 356.96,262.03 350.80,257.82 C345.03,253.95 329.94,245.49 323.59,242.61 C315.92,239.19 303.76,234.66 296.97,232.81 C289.69,230.84 276.08,228.66 267.09,228.47 C255.48,228.40 245.26,229.55 239.53,231.10 C236.29,232.00 227.63,235.93 225.73,236.92 C221.80,238.99 216.07,243.38 213.61,246.52 C211.15,249.74 208.37,256.12 207.69,260.19 C207.05,264.24 207.50,270.60 208.50,274.53 C209.39,277.91 212.09,284.46 213.82,287.30 C217.35,293.03 226.18,302.87 232.87,307.92 C239.45,312.84 252.70,319.76 259.92,322.67 C266.08,325.14 278.51,328.88 288.14,331.23 C295.17,332.80 309.58,335.13 316.74,336.04 C323.99,336.84 339.33,337.55 346.58,337.67 C353.76,337.72 367.21,336.96 375.87,335.56 C398.15,331.72 411.29,328.36 415.25,327.05 C416.86,326.53 417.82,325.99 419.60,324.69" fill="none" stroke="rgb(255, 255, 255)" stroke-width="13.14" stroke-opacity="1.00" stroke-linejoin="round"/>
<path d="M408.05,326.23 C408.05,326.23 406.31,324.46 406.31,324.46 C407.75,320.87 409.39,318.13 412.13,315.46 C417.42,310.41 429.13,301.57 436.23,297.22 C445.73,291.59 454.93,286.59 462.62,282.99 C469.05,280.07 482.54,274.68 489.55,272.09 C493.97,270.52 514.33,264.59 519.05,263.51 C526.50,261.81 542.06,259.29 549.16,258.88 C553.89,258.62 573.75,258.67 576.66,259.23 C579.65,259.81 589.20,262.62 590.79,263.14 C595.19,264.62 601.49,267.87 604.44,270.43 C607.32,272.99 610.94,278.18 612.13,281.52 C613.31,284.99 613.47,290.94 612.49,294.82 C611.51,298.55 608.59,304.22 606.13,307.54 C603.99,310.38 598.90,315.78 596.17,318.04 C590.66,322.56 578.68,329.89 570.68,333.25 C562.85,336.51 548.77,340.26 541.48,341.53 C534.25,342.76 520.27,343.83 511.22,343.99 C505.24,344.04 485.15,342.74 481.10,342.25 C476.14,341.64 457.46,338.23 450.57,336.60 C443.67,334.89 428.24,328.60 420.43,325.15 C410.72,320.69 404.99,316.87 404.78,316.69 C404.61,316.53 404.41,316.26 404.17,315.88" fill="none" stroke="rgb(255, 255, 255)" stroke-width="13.14" stroke-opacity="1.00" stroke-linejoin="round"/>
<path d="M411.73,329.46 C411.73,329.46 412.14,328.38 412.14,328.38 C410.41,326.77 406.43,324.91 402.81,324.53 C397.45,324.01 380.24,326.72 372.59,328.75 C367.67,330.06 349.21,336.07 343.34,338.45 C336.50,341.24 326.45,346.18 317.19,351.20 C308.26,356.32 297.89,363.12 291.53,367.58 C285.35,372.10 272.57,382.63 268.21,386.85 C262.85,392.08 249.88,408.44 248.00,411.23 C246.69,413.20 244.83,417.61 242.84,423.04 C241.23,427.50 239.47,434.45 239.49,437.99 C239.56,441.38 241.63,448.04 243.49,450.46 C245.42,452.90 250.72,456.57 254.17,457.50 C257.85,458.44 265.50,458.77 268.99,458.30 C275.56,457.35 288.01,453.65 295.24,450.46 C302.19,447.37 312.83,441.53 320.23,436.85 C327.65,432.01 335.47,426.23 343.74,419.47 C351.90,412.50 360.47,404.72 364.85,400.21 C369.88,395.00 380.76,381.38 385.68,375.13 C391.00,368.11 402.06,352.78 405.37,347.25 C410.06,339.35 412.80,331.76 413.53,327.87 C413.53,327.87 412.83,327.03 412.83,327.03" fill="none" stroke="rgb(255, 255, 255)" stroke-width="13.14" stroke-opacity="1.00" stroke-linejoin="round"/>
<path d="M414.85,332.46 C419.90,333.10 424.05,334.06 428.24,335.73 C435.98,338.86 448.87,345.26 455.48,349.39 C459.40,351.85 474.54,362.71 478.99,366.62 C484.22,371.24 494.15,381.89 499.28,388.36 C504.18,394.56 512.82,408.65 515.85,415.10 C518.95,421.76 523.75,436.56 525.00,443.81 C526.32,451.66 526.25,463.45 524.93,472.89 C524.19,478.02 523.36,482.61 522.68,484.43 C521.72,486.98 517.59,495.13 516.86,496.45 C514.77,500.21 510.53,505.47 507.45,507.83 C504.32,510.16 498.31,512.74 494.51,513.34 C490.73,513.90 484.87,513.35 481.27,512.28 C478.24,511.35 472.02,508.42 468.97,506.29 C462.37,501.60 453.13,491.37 448.71,484.84 C444.49,478.57 438.27,466.46 434.49,457.67 C429.92,446.59 419.13,411.83 416.85,401.21 C415.24,393.17 412.53,377.63 411.14,369.30 C409.77,359.58 408.62,344.14 409.17,334.99 C409.37,331.79 409.68,326.65 409.71,326.40 C409.74,326.14 409.82,325.80 409.94,325.36" fill="none" stroke="rgb(255, 255, 255)" stroke-width="13.14" stroke-opacity="1.00" stroke-linejoin="round"/>
<path d="M413.59,339.75 C412.34,342.59 402.42,381.55 398.04,398.56 C394.83,409.70 382.97,442.84 378.72,453.24 C374.16,464.02 359.41,493.12 351.51,506.32 C347.33,513.03 337.50,527.90 334.18,532.53 C329.58,538.77 319.97,551.06 314.92,557.07 C305.92,567.36 276.16,595.68 272.07,598.83 C268.32,601.69 253.80,611.38 247.06,615.85 C237.73,621.69 228.04,627.05 220.66,630.55 C212.24,634.45 199.90,639.45 194.55,641.12 C187.95,643.15 170.52,646.42 164.16,646.06 C162.24,645.95 159.31,645.44 156.83,644.85 C153.97,644.12 152.71,641.49 152.42,640.30" fill="none" stroke="rgb(255, 255, 255)" stroke-width="13.14" stroke-opacity="1.00" stroke-linejoin="round"/>
<path d="M151.32,645.32 C153.77,645.90 155.60,646.28 157.43,646.54 C159.39,646.81 161.54,647.02 162.95,647.07 C163.25,647.08 163.78,647.09 164.52,647.10" fill="none" stroke="rgb(255, 255, 255)" stroke-width="13.14" stroke-opacity="1.00" stroke-linejoin="round"/>
<path d="M235.52,499.68 C234.66,500.41 234.07,501.24 233.43,502.78 C231.04,508.64 228.17,522.66 227.89,529.30 C227.65,535.51 228.68,548.34 230.09,554.39 C231.71,561.16 237.35,572.27 239.50,574.99 C242.70,578.98 246.58,583.17 249.21,585.28 C251.86,587.36 256.49,589.97 259.42,590.82 C261.33,591.35 262.06,591.45 262.85,591.33" fill="none" stroke="rgb(255, 255, 255)" stroke-width="13.14" stroke-opacity="1.00" stroke-linejoin="round"/>
<path d="M232.89,499.79 C238.98,501.72 249.33,507.76 254.06,511.88 C256.49,514.01 261.28,519.15 263.30,521.88 C265.52,524.95 269.02,531.45 270.55,535.51 C272.44,540.60 274.32,551.92 274.42,557.96 C274.50,564.72 272.42,577.98 270.71,583.27 C269.67,586.40 268.35,588.66 267.33,589.93" fill="none" stroke="rgb(255, 255, 255)" stroke-width="13.14" stroke-opacity="1.00" stroke-linejoin="round"/>
<path d="M260.57,590.91 C260.71,590.90 260.95,590.91 261.28,590.93 C262.21,590.98 263.15,591.02 264.08,591.07 C264.41,591.09 264.63,591.09 264.75,591.08" fill="none" stroke="rgb(255, 255, 255)" stroke-width="13.14" stroke-opacity="1.00" stroke-linejoin="round"/>
<path d="M267.52,589.91 C267.52,589.91 266.94,590.80 266.94,590.80" fill="none" stroke="rgb(255, 255, 255)" stroke-width="13.14" stroke-opacity="1.00" stroke-linejoin="round"/>
</g>
<g stroke-linecap="round" id="レイヤー_2_のコピー">
<path d="M543.70,1079.68 C544.11,1079.73 544.42,1079.73 544.63,1079.68 C545.62,1079.45 547.67,1077.63 548.63,1076.05 C550.44,1073.01 551.94,1062.08 552.60,1051.08 C553.04,1041.48 552.62,1030.57 551.66,1022.55 C551.12,1018.37 547.37,998.70 546.24,994.17 C542.76,980.30 533.58,954.65 526.49,938.89 C524.50,934.60 515.72,918.18 511.68,911.25 C507.62,904.61 497.56,889.95 494.85,886.37 C490.12,880.14 480.51,869.30 474.56,863.47 C469.17,858.38 456.82,846.96 452.88,844.00 C449.11,841.20 434.62,832.16 431.77,830.62 C424.87,826.92 410.91,821.46 404.38,819.90 C401.47,819.22 394.14,818.13 391.64,818.00 C387.77,817.80 379.94,818.36 376.47,819.20 C372.63,820.17 367.05,822.60 364.03,824.63 C361.33,826.49 356.68,831.53 355.11,834.06 C353.56,836.61 350.93,843.46 350.26,847.13 C349.09,853.75 349.98,867.51 351.65,874.50 C353.21,880.87 358.15,893.91 360.95,899.59 C364.39,906.50 369.78,915.54 376.11,925.01 C380.85,932.01 387.41,940.44 394.39,948.19 C407.51,962.43 425.56,980.39 438.30,991.26 C451.58,1002.17 474.63,1019.10 485.39,1026.57 C495.51,1033.40 542.23,1058.03 543.29,1058.59 C543.39,1058.64 543.49,1058.69 543.59,1058.75" fill="none" stroke="rgb(255, 255, 255)" stroke-width="8.77" stroke-opacity="1.00" stroke-linejoin="round"/>
<path d="M545.52,1075.67 C544.50,1074.69 541.13,1070.71 537.48,1067.18 C535.47,1065.24 517.91,1049.82 514.24,1046.99 C509.15,1043.09 496.03,1035.04 489.00,1031.25 C483.00,1028.04 466.14,1020.74 461.27,1018.96 C455.93,1017.01 439.73,1012.41 433.70,1011.11 C427.27,1009.74 412.15,1007.76 405.33,1007.53 C397.88,1007.31 380.46,1009.00 375.08,1009.93 C368.90,1011.02 354.69,1016.52 349.85,1019.41 C346.48,1021.46 341.79,1024.97 339.22,1027.38 C336.94,1029.53 333.03,1034.46 331.75,1036.63 C330.46,1038.84 328.34,1044.24 327.86,1046.88 C327.35,1049.88 327.46,1054.65 328.12,1057.68 C328.73,1060.39 331.27,1066.11 332.79,1068.45 C334.35,1070.81 339.12,1076.24 341.89,1078.68 C346.96,1083.06 360.31,1090.82 363.70,1092.43 C367.77,1094.35 387.16,1100.18 391.63,1101.26 C399.30,1103.08 412.52,1104.83 421.72,1105.36 C429.16,1105.69 442.53,1105.47 451.73,1104.94 C459.23,1104.38 474.90,1102.28 482.35,1101.07 C487.02,1100.27 504.53,1096.31 511.52,1093.94 C520.46,1090.83 533.30,1085.19 538.32,1080.96 C539.59,1079.82 542.41,1077.29 542.65,1076.91 C542.86,1076.56 543.19,1075.75 543.63,1074.49" fill="none" stroke="rgb(255, 255, 255)" stroke-width="8.77" stroke-opacity="1.00" stroke-linejoin="round"/>
<path d="M555.10,1075.35 C554.58,1074.09 554.37,1073.29 554.22,1071.84 C553.76,1067.33 554.37,1050.02 555.54,1042.70 C556.28,1038.10 560.12,1021.25 562.32,1014.71 C564.53,1008.35 570.78,993.35 573.90,987.51 C577.65,980.64 584.39,969.91 589.12,963.65 C593.96,957.27 603.40,947.02 608.72,942.13 C613.62,937.64 626.05,928.52 631.52,925.54 C637.40,922.35 650.18,917.26 658.19,915.54 C665.65,913.97 681.38,913.28 688.08,914.59 C691.08,915.19 700.52,917.86 701.09,918.05 C704.35,919.14 707.71,921.21 710.69,923.63 C715.02,927.21 719.68,931.84 721.65,935.14 C723.41,938.18 726.05,945.63 726.61,949.39 C727.16,953.43 726.99,961.15 726.25,964.68 C725.45,968.31 723.18,975.09 721.66,978.26 C719.13,983.47 710.44,995.53 704.95,1001.21 C699.23,1007.10 689.17,1015.73 681.66,1021.39 C674.18,1026.92 662.64,1034.87 657.92,1037.57 C653.82,1039.90 637.68,1048.06 630.41,1051.54 C615.41,1058.37 596.53,1064.89 596.43,1064.92 C596.18,1064.99 595.79,1065.06 595.26,1065.15" fill="none" stroke="rgb(255, 255, 255)" stroke-width="8.77" stroke-opacity="1.00" stroke-linejoin="round"/>
<path d="M545.18,1096.77 C556.00,1096.54 566.20,1095.84 574.22,1094.57 C581.82,1093.34 594.55,1090.01 605.00,1086.73 C612.73,1084.14 627.30,1078.95 632.83,1076.13 C638.07,1073.41 651.74,1065.47 655.94,1062.37 C661.80,1058.02 671.70,1048.79 676.23,1043.08 C678.22,1040.56 682.49,1034.03 683.73,1031.45 C685.04,1028.68 687.23,1021.56 687.62,1018.51 C687.99,1015.40 687.67,1007.25 687.05,1003.54 C686.04,997.78 681.28,984.49 677.73,977.52 C674.26,970.74 667.72,960.72 662.68,953.69 C658.51,948.10 648.32,935.99 645.13,932.58 C638.35,925.44 610.13,899.51 598.93,890.57 C593.29,886.30 583.81,879.51 575.24,874.02 C568.74,870.05 555.23,862.19 549.75,859.51 C543.44,856.43 533.14,852.44 522.94,848.91 C514.10,845.99 502.15,842.94 494.65,841.82 C486.97,840.69 473.45,840.36 466.53,841.16 C463.00,841.59 455.73,843.42 452.17,844.74 C448.24,846.23 442.83,849.11 439.65,851.41 C436.91,853.41 431.86,858.11 429.80,860.80 C427.68,863.59 424.01,869.86 422.85,872.63 C421.71,875.40 419.74,882.77 419.21,886.37 C418.29,892.96 419.98,908.66 422.04,915.84 C424.11,922.98 429.19,934.58 433.14,941.21 C436.71,947.18 445.80,958.95 450.45,963.89 C455.00,968.70 466.71,979.07 472.94,983.67 C479.59,988.55 489.35,994.68 498.09,999.60 C506.68,1004.17 517.35,1009.20 524.06,1012.17 C536.53,1017.40 565.33,1027.28 577.99,1030.41 C582.64,1031.56 601.05,1035.17 607.56,1035.92 C616.28,1036.91 631.30,1036.79 637.25,1035.51 C640.12,1034.88 646.06,1032.89 648.71,1031.30 C651.83,1029.39 655.30,1025.30 656.36,1022.26 C657.28,1019.42 656.76,1012.19 655.62,1008.22 C653.91,1002.48 646.73,989.24 641.89,982.22 C638.66,977.56 626.08,962.37 622.95,958.98 C612.85,948.30 589.62,927.37 577.82,917.23 C565.60,907.25 538.83,887.06 528.95,880.28 C519.29,873.87 485.72,854.13 477.34,850.50 C473.32,848.76 452.53,841.53 450.40,840.94 C446.18,839.78 440.21,838.95 437.61,838.63 C433.90,838.15 428.67,838.32 424.09,838.94 C419.51,839.60 413.71,841.62 411.07,843.51 C408.54,845.36 405.00,849.54 403.48,852.51 C401.95,855.61 400.58,861.32 400.42,865.33 C400.29,869.22 401.20,875.80 402.30,879.90 C404.29,887.21 409.74,899.72 413.64,907.27 C416.35,912.39 425.77,927.48 429.82,932.89 C434.64,939.26 442.99,949.05 447.86,954.06 C452.15,958.40 462.39,967.63 469.40,973.13 C477.80,979.44 485.31,984.55 494.83,990.44 C504.20,995.91 514.77,1001.36 521.31,1004.51 C530.29,1008.57 541.39,1012.89 548.33,1015.36 C557.13,1018.31 570.29,1022.10 578.02,1024.10 C585.49,1025.87 601.12,1028.96 606.46,1029.76 C613.21,1030.71 631.35,1031.73 634.48,1031.63 C641.29,1031.38 653.57,1028.52 658.25,1025.69 C661.34,1023.78 665.59,1018.44 666.62,1015.16 C667.68,1011.61 667.66,1005.26 666.87,1001.10 C665.58,994.64 659.39,980.29 655.76,974.21 C652.01,967.97 644.63,957.58 639.09,950.85 C633.49,944.22 626.54,936.90 619.36,929.92 C610.56,921.72 586.63,901.94 574.69,892.79 C558.78,881.14 534.46,865.09 524.41,859.08 C514.07,853.20 485.33,838.60 470.83,832.35 C464.18,829.60 450.55,824.47 443.51,822.09 C436.57,819.90 422.77,815.97 414.59,814.29 C406.05,812.56 393.02,811.55 384.47,812.13 C379.65,812.49 375.53,813.08 372.76,814.04 C367.93,815.79 364.48,817.39 361.64,820.18 C359.46,822.38 357.40,824.97 356.52,826.72 C355.42,829.01 355.07,835.50 355.76,838.78 C356.83,843.63 363.19,855.29 367.91,861.32 C372.53,867.18 382.88,877.58 389.03,882.87 C393.54,886.72 410.16,898.68 413.79,901.00 C416.97,903.01 432.24,911.56 438.93,915.06 C454.91,922.75 477.16,931.87 493.57,937.85 C508.69,943.07 539.85,953.44 555.89,958.60 C572.38,963.61 602.77,972.73 616.67,976.84 C630.89,980.88 668.59,988.93 673.55,988.91 C676.37,988.86 680.74,987.56 682.49,986.94 C681.58,983.72 678.80,974.37 678.26,973.29 C676.78,970.38 671.36,964.85 670.83,964.24 C664.21,956.77 640.48,935.60 628.97,926.38 C616.14,916.35 591.33,899.24 579.04,891.93 C563.22,883.00 536.82,869.90 526.34,865.25 C519.39,862.35 505.47,856.74 498.62,854.18 C491.00,851.57 473.03,846.11 468.68,845.06 C460.81,843.18 445.06,840.76 437.97,840.57 C434.12,840.49 427.52,840.75 422.80,841.05 C418.90,841.32 414.41,842.26 411.11,843.40 C407.02,844.94 404.15,846.29 401.11,848.49 C397.33,851.26 392.47,855.59 390.63,858.24 C388.95,860.71 386.59,866.52 386.18,869.51 C385.78,872.67 386.28,879.00 387.43,882.37 C388.61,885.74 392.19,892.62 394.31,895.64 C398.68,901.80 407.98,911.83 413.99,917.18 C418.78,921.42 430.21,929.82 437.13,934.27 C441.95,937.32 456.77,945.21 464.98,948.74 C468.42,950.21 486.69,957.19 494.29,959.90 C508.44,964.69 538.48,972.48 553.81,976.01 C569.09,979.27 599.28,984.72 614.89,987.10 C622.98,988.23 638.61,990.31 646.15,991.26 C664.72,993.27 688.91,993.44 691.34,993.24 C693.43,993.05 703.90,990.61 706.01,989.74 C707.43,989.13 709.61,987.63 710.75,986.55 C711.78,985.50 713.04,982.94 713.24,981.21 C713.42,979.37 712.73,976.05 711.88,974.15 C710.19,970.55 706.77,965.62 704.21,962.61 C699.73,957.40 690.74,949.20 683.85,943.43 C680.43,940.64 666.69,930.53 659.37,925.97 C649.78,920.18 621.28,904.45 604.13,896.05 C590.33,889.58 559.65,876.13 548.61,871.83 C532.26,865.68 509.08,858.69 491.30,854.01 C482.64,851.81 473.97,850.48 464.73,849.70 C452.08,848.74 441.79,848.53 433.99,849.44 C426.33,850.35 413.76,852.99 408.25,854.87 C405.21,855.92 397.08,859.40 394.23,860.87 C390.00,863.09 375.63,874.07 371.68,878.07 C368.77,881.04 365.21,885.60 362.18,889.85 C360.03,892.93 358.65,895.59 357.01,899.45 C355.49,903.15 354.61,908.42 354.53,913.30 C354.51,917.76 355.77,924.21 357.42,927.85 C358.99,931.26 362.61,936.64 365.17,939.57 C369.93,944.94 380.99,953.05 387.01,956.39 C392.34,959.32 406.89,965.27 413.65,967.49 C419.78,969.51 457.86,979.31 469.66,981.56 C484.24,983.95 515.73,988.78 532.64,991.22 C549.31,993.25 583.60,996.43 599.90,997.53 C614.43,998.38 646.69,999.44 660.36,998.98 C667.40,998.67 685.14,996.57 690.21,995.76 C693.86,995.17 699.87,993.55 703.27,992.14 C705.95,991.00 712.48,987.09 713.87,985.90 C715.23,984.69 717.62,981.73 718.07,980.50 C718.53,979.14 718.19,975.89 717.52,974.28 C716.69,972.42 711.77,966.91 708.95,964.62 C703.20,960.00 688.83,951.26 682.87,948.20 C676.59,944.99 662.46,938.89 654.00,935.82 C646.52,933.27 633.41,929.17 624.20,926.65 C606.21,922.13 578.03,916.40 563.89,914.42 C556.71,913.53 542.42,912.17 535.37,911.75 C528.30,911.47 511.16,911.42 506.06,911.71 C497.48,912.31 478.15,914.16 474.06,914.69 C468.83,915.38 453.23,919.22 445.80,921.07 C435.01,924.02 423.74,927.76 415.42,931.11 C407.71,934.36 395.58,940.38 389.67,943.87 C383.94,947.27 369.35,958.26 367.16,960.15 C365.50,961.59 362.90,964.78 359.13,969.84 C356.19,973.94 353.45,979.74 352.79,983.25 C352.21,986.59 352.43,992.45 353.29,995.82 C354.21,999.28 356.82,1004.52 359.20,1007.67 C361.53,1010.69 365.90,1014.83 369.05,1017.15 C374.72,1021.28 386.49,1026.60 393.48,1028.91 C399.61,1030.92 416.34,1034.71 423.78,1035.87 C431.27,1036.96 446.82,1038.76 453.79,1039.33 C471.49,1040.40 500.03,1040.65 511.34,1040.27 C530.05,1039.30 561.64,1036.11 573.26,1033.84 C577.16,1033.07 585.14,1031.14 587.87,1030.32 C596.55,1027.69 601.35,1023.89 602.60,1022.75 C601.20,1020.45 597.53,1014.62 595.38,1012.72 C593.03,1010.70 588.21,1008.74 582.41,1006.78 C570.59,1002.93 542.45,997.17 528.32,995.05 C513.96,993.13 483.98,990.21 468.86,989.30 C450.57,988.64 423.94,989.01 410.12,990.23 C401.37,991.17 389.52,993.27 380.07,995.64 C371.55,997.85 360.57,1002.48 357.27,1004.50 C355.18,1005.79 347.60,1011.33 345.76,1013.17 C342.90,1016.11 339.64,1022.51 339.34,1025.62 C339.22,1027.23 339.54,1030.57 340.00,1031.96 C341.02,1034.85 345.89,1041.04 348.79,1043.34 C351.81,1045.70 357.77,1049.30 361.03,1050.74 C367.53,1053.57 380.21,1057.21 387.93,1058.72 C394.24,1059.93 410.82,1061.70 418.74,1062.44 C433.77,1063.35 463.06,1063.33 478.85,1063.20 C486.80,1062.93 504.22,1062.12 513.09,1061.43 C520.65,1060.69 538.07,1058.93 540.81,1058.57 C543.88,1058.13 547.72,1056.42 551.45,1053.72 C552.07,1053.27 552.68,1052.82 553.30,1052.38 C543.74,1046.85 534.69,1042.18 528.08,1040.19 C512.87,1035.87 487.54,1031.06 470.45,1029.30 C463.37,1028.70 451.12,1027.97 442.11,1027.79 C432.12,1027.80 422.86,1028.19 411.86,1029.16 C404.06,1030.01 387.64,1032.78 382.45,1034.03 C375.44,1035.74 360.79,1040.75 353.57,1044.38 C350.12,1046.14 343.42,1050.80 341.92,1052.59 C340.49,1054.35 339.10,1057.64 339.08,1059.39 C339.10,1061.20 342.42,1066.45 345.21,1068.69 C348.25,1071.07 354.25,1074.23 358.36,1075.82 C364.85,1078.29 382.66,1082.26 386.54,1082.87 C395.70,1084.27 431.62,1086.09 449.47,1086.49 C502.04,1086.75 517.36,1085.90 526.18,1085.13 C515.75,1082.50 507.12,1080.56 497.63,1079.16 C490.01,1078.17 473.38,1076.55 465.37,1076.02 C457.87,1075.68 442.32,1075.36 434.69,1075.45 C427.03,1075.70 412.78,1076.91 404.36,1078.15 C396.48,1079.39 383.37,1082.52 375.49,1085.45 C372.59,1086.54 365.96,1089.06 363.72,1090.27 C361.18,1091.69 359.26,1096.44 358.78,1097.70 C364.22,1099.17 368.39,1099.89 372.43,1099.83 C378.69,1099.68 393.15,1097.83 400.63,1096.25 C408.89,1094.49 420.32,1090.68 421.88,1089.61 C422.18,1089.40 422.78,1088.88 423.69,1088.04" fill="none" stroke="rgb(255, 255, 255)" stroke-width="75.47" stroke-opacity="1.00" stroke-linejoin="round"/>
<path d="M576.36,714.19 C576.36,714.19 577.81,715.66 577.81,715.66 C579.06,715.08 579.72,714.34 580.43,712.39 C582.30,707.29 582.72,705.84 583.21,703.75" fill="none" stroke="rgb(255, 255, 255)" stroke-width="8.77" stroke-opacity="1.00" stroke-linejoin="round"/>
<path d="M579.18,705.51 C580.75,706.59 583.94,708.77 585.55,709.88 C585.69,709.98 586.11,710.27 585.97,710.17 C585.97,710.17 585.62,709.83 585.62,709.83" fill="none" stroke="rgb(255, 255, 255)" stroke-width="8.77" stroke-opacity="1.00" stroke-linejoin="round"/>
<path d="M590.27,706.88 C589.86,706.64 589.21,702.14 589.22,696.67 C589.29,692.84 590.44,687.11 591.79,683.13 C593.92,676.97 600.05,665.61 604.25,659.78 C608.65,653.71 618.96,642.41 624.44,637.61 C629.84,632.90 641.17,625.20 646.28,622.80 C649.73,621.20 659.90,617.65 660.89,617.38 C664.11,616.52 672.01,615.45 674.93,615.50 C676.55,615.54 684.73,616.69 686.90,617.44 C690.33,618.68 695.78,622.97 697.54,625.78 C699.47,628.97 701.04,635.37 700.94,639.66 C700.82,643.35 699.03,650.17 697.82,653.17 C696.50,656.36 692.48,662.91 690.09,665.98 C686.08,671.07 674.58,681.19 668.11,685.49 C661.35,689.96 647.35,697.38 640.96,700.13 C637.03,701.81 619.81,707.86 614.30,709.07 C610.14,709.97 588.33,712.91 584.47,713.13 C580.65,713.34 579.03,713.06 577.69,712.61" fill="none" stroke="rgb(255, 255, 255)" stroke-width="8.77" stroke-opacity="1.00" stroke-linejoin="round"/>
<path d="M585.32,711.16 C585.32,711.16 586.06,709.68 586.06,709.68 C584.68,707.74 580.75,705.18 576.34,703.36 C569.75,700.70 554.29,697.03 547.64,696.01 C540.86,694.98 523.93,693.96 519.83,693.94 C512.92,693.92 498.22,694.96 491.21,696.11 C484.17,697.29 468.14,702.33 465.21,703.72 C463.54,704.52 456.42,709.46 454.73,710.80 C451.99,713.01 448.19,718.37 447.29,721.32 C446.51,724.05 446.93,730.06 448.40,732.81 C450.10,735.86 454.82,740.40 458.65,742.66 C461.98,744.59 469.11,747.17 472.37,748.00 C478.19,749.44 491.85,750.23 498.63,749.55 C505.79,748.81 519.47,745.55 526.11,743.28 C531.36,741.47 544.74,735.67 553.16,731.04 C560.33,727.02 568.03,721.39 575.66,714.54 C579.83,710.70 584.56,705.87 585.39,704.44 C585.48,704.27 585.56,704.05 585.60,703.79" fill="none" stroke="rgb(255, 255, 255)" stroke-width="8.77" stroke-opacity="1.00" stroke-linejoin="round"/>
<path d="M583.67,713.98 C583.67,713.98 583.18,713.39 583.18,713.39 C584.32,711.69 585.57,710.35 587.16,709.57 C592.18,707.14 608.19,705.13 616.72,705.03 C625.42,705.01 637.14,706.01 645.19,707.37 C652.79,708.71 666.43,712.32 672.68,714.49 C679.80,717.00 691.10,722.31 699.67,727.97 C703.88,730.77 706.63,733.20 709.17,736.36 C711.91,739.84 714.98,744.41 715.80,747.36 C716.59,750.45 715.75,755.88 714.07,758.43 C712.46,760.75 706.71,764.18 703.13,765.19 C697.76,766.65 684.27,766.53 676.61,765.39 C670.25,764.43 654.92,760.31 647.53,757.47 C639.72,754.44 626.55,748.22 620.54,744.52 C617.67,742.74 599.53,730.33 596.82,728.26 C588.31,721.68 583.64,715.92 582.20,713.35 C582.20,713.35 582.46,712.68 582.46,712.68" fill="none" stroke="rgb(255, 255, 255)" stroke-width="8.77" stroke-opacity="1.00" stroke-linejoin="round"/>
<path d="M582.33,716.54 C579.73,717.59 575.24,720.77 571.40,724.13 C565.46,729.48 555.76,741.01 551.65,747.18 C547.64,753.25 540.95,767.84 538.89,774.70 C536.62,782.34 534.78,797.98 535.35,805.37 C535.63,808.85 537.08,816.47 538.13,819.62 C539.12,822.50 543.42,831.33 543.78,832.00 C545.42,835.04 550.10,840.03 552.76,842.41 C555.83,845.12 562.11,847.81 565.14,848.09 C568.05,848.31 574.51,846.73 577.42,844.80 C580.52,842.69 584.67,838.07 586.72,834.80 C589.89,829.63 594.12,816.36 595.12,809.59 C596.18,802.22 596.69,790.29 596.53,778.88 C596.34,770.68 595.62,761.02 594.24,750.87 C592.60,739.92 589.96,726.43 587.67,720.10 C587.25,718.93 584.39,711.79 584.31,711.62 C584.21,711.42 584.09,711.22 583.95,711.01" fill="none" stroke="rgb(255, 255, 255)" stroke-width="8.77" stroke-opacity="1.00" stroke-linejoin="round"/>
<path d="M584.65,720.89 C586.44,723.04 609.30,758.73 616.88,768.72 C621.02,773.90 631.61,786.72 634.76,790.11 C639.99,795.62 651.00,806.46 656.48,811.26 C661.99,815.91 673.29,824.84 679.13,828.96 C687.17,834.42 698.35,841.16 704.79,844.41 C708.27,846.16 726.19,854.50 730.25,855.81 C733.35,856.80 754.00,862.38 759.88,863.43 C766.56,864.60 782.99,866.05 789.19,865.72 C792.74,865.52 801.46,864.32 804.13,863.54 C807.06,862.66 812.44,859.72 812.70,859.21 C812.87,858.85 813.04,857.93 813.20,856.45" fill="none" stroke="rgb(255, 255, 255)" stroke-width="8.77" stroke-opacity="1.00" stroke-linejoin="round"/>
<path d="M527.59,585.78 C526.56,585.60 524.46,586.41 522.59,587.92 C520.68,589.50 516.81,596.53 515.42,600.74 C514.26,604.39 513.44,610.77 513.30,614.40 C513.10,620.84 516.07,634.27 518.32,640.20 C520.83,646.76 527.86,659.28 532.60,665.63 C536.69,671.08 546.68,682.04 551.98,687.13 C556.82,691.76 568.39,700.87 573.05,703.49 C575.99,705.12 582.41,707.66 582.93,707.76 C583.31,707.83 584.03,707.86 585.08,707.85" fill="none" stroke="rgb(255, 255, 255)" stroke-width="13.14" stroke-opacity="1.00" stroke-linejoin="round"/>
<path d="M520.95,589.16 C521.05,588.20 522.27,586.05 523.66,584.79 C525.71,582.98 531.93,581.24 534.98,581.54 C537.93,581.88 543.07,583.65 545.89,585.37 C548.76,587.14 553.66,591.42 555.31,593.21 C559.69,597.99 566.39,609.55 568.67,615.20 C571.20,621.51 575.57,634.90 577.43,643.28 C581.87,664.34 584.89,684.43 586.31,703.51 C586.50,706.57 586.82,711.76 586.96,713.90" fill="none" stroke="rgb(255, 255, 255)" stroke-width="13.14" stroke-opacity="1.00" stroke-linejoin="round"/>
<path d="M799.54,864.99 C799.88,864.11 810.63,859.81 811.39,859.52 C811.94,859.33 812.88,859.01 814.22,858.57" fill="none" stroke="rgb(255, 255, 255)" stroke-width="13.14" stroke-opacity="1.00" stroke-linejoin="round"/>
<path d="M813.52,858.84 C813.17,859.10 812.84,859.31 812.52,859.45 C811.94,859.71 811.06,860.03 809.89,860.41 C809.56,860.52 809.00,860.68 808.21,860.90 C807.79,861.01 807.38,861.12 806.97,861.24" fill="none" stroke="rgb(255, 255, 255)" stroke-width="13.14" stroke-opacity="1.00" stroke-linejoin="round"/>
</g>
</svg>
